<svg width="36" height="40" viewBox="0 0 36 40" xmlns="http://www.w3.org/2000/svg">
    <path d="M14.6 9.72c.98 1.006 1.979 1.992 2.941 3.014.178.189.309.506.314.766.03 1.563.02 3.126.009 4.69-.001.156-.094.311-.144.467-.13-.079-.282-.134-.385-.24-1.795-1.844-3.583-3.695-5.375-5.544-.111-.115-.219-.28-.354-.314-.18-.045-.43-.05-.569.047-.211.146-.157.388.02.573.23.244.461.49.7.726 1.92 1.905 3.84 3.809 5.762 5.712.06.06.134.106.237.186.655-.697 1.303-1.385 1.949-2.076l.734-.796c.123-.132.247-.262.374-.39.186-.186.24-.337.158-.613-.22-.744.2-1.513.871-1.686.737-.19 1.438.208 1.644.932.195.686-.204 1.415-.899 1.635-.082.027-.177.066-.253.046-.522-.139-.817.18-1.132.523-1.01 1.099-2.046 2.172-3.048 3.277a1.188 1.188 0 0 0-.272.693c-.034.765-.013 1.532-.013 2.365.115-.09.193-.14.255-.204 2.495-2.592 4.986-5.188 7.486-7.773.192-.199.23-.34.11-.6-.658-1.439.01-3.07 1.444-3.573 1.459-.512 2.956.317 3.342 1.85.466 1.852-1.238 3.587-3.084 3.122-.3-.075-.478-.006-.68.205-2.877 3.015-5.764 6.02-8.636 9.042-.14.147-.224.41-.226.62-.02 1.888-.016 3.776-.023 5.663-.001.18-.034.36-.062.651-.476-.461-.878-.835-1.263-1.226-3.882-3.935-7.762-7.873-11.643-11.81l-.053-.055-.106-.114c-.179-.186-.374-.334-.673-.097-.251.2-.18.486.217.895 1.469 1.508 2.946 3.01 4.413 4.52 2.904 2.99 5.803 5.984 8.704 8.976.06.062.127.115.227.205.343-.36.673-.707 1.005-1.052l6.559-6.84c.279-.29.51-.533.392-1.047-.177-.767.438-1.447 1.183-1.467.868-.023 1.426.56 1.373 1.433-.045.742-.737 1.315-1.493 1.172-.28-.054-.427.033-.597.21-2.665 2.772-5.335 5.54-7.997 8.316-.092.095-.18.245-.183.37-.015.912-.008 1.824-.008 2.736l.11.061c.317-.324.636-.645.95-.971 2.457-2.548 4.911-5.098 7.37-7.643a913.332 913.332 0 0 1 4.71-4.843c.194-.199.214-.348.107-.608a2.582 2.582 0 0 1 1.529-3.44c1.376-.478 2.862.316 3.263 1.744.405 1.444-.456 2.94-1.92 3.227-.435.085-.91-.055-1.369-.064-.163-.004-.383.015-.484.119-2.593 2.659-5.172 5.332-7.757 7.999-1.72 1.775-3.446 3.544-5.17 5.316L17.966 40c-1.197-1.188-2.362-2.316-3.497-3.475-1.758-1.798-3.498-3.614-5.242-5.427-2.707-2.814-5.423-5.619-8.11-8.451-1.13-1.19-1.348-2.652-.899-4.19.469-1.604 1.597-2.581 3.17-2.964 1.634-.398 3.063.08 4.259 1.266 2.159 2.141 4.31 4.292 6.464 6.438.06.06.125.115.194.178.237-.61.12-1.126-.338-1.59-1.87-1.892-3.739-3.788-5.61-5.68-1.04-1.054-1.597-2.29-1.434-3.815a4.413 4.413 0 0 1 3.601-3.895c1.597-.287 2.942.16 4.076 1.325zM18.364 0c1.435 1.293 2.85 2.623 3.788 4.389.75 1.41.43 3.057-.785 4.308-2.028 2.088-5.628 1.597-7.006-.973-.614-1.145-.675-2.302.015-3.468.726-1.229 2.951-3.65 3.988-4.256z" fill="#0A3D31" fill-rule="evenodd" opacity=".3"/>
</svg>
