<?xml version="1.0" encoding="UTF-8"?>
<svg width="76px" height="76px" viewBox="0 0 76 76" version="1.1" xmlns="http://www.w3.org/2000/svg" xmlns:xlink="http://www.w3.org/1999/xlink">
    <title>8381AC7C-F15F-4B72-B9B7-739CDD8DEEB9</title>
    <g id="-" stroke="none" stroke-width="1" fill="none" fill-rule="evenodd">
        <g id="Icon/detailed/warning" fill="#F0973A">
            <rect id="Rectangle" opacity="0.23" x="7" y="7" width="62" height="62" rx="17"></rect>
            <path d="M35.8522289,12.5813026 C35.2085918,12.956414 34.6735397,13.4935821 34.2999059,14.1397645 L11.5790129,53.4344987 C10.392637,55.4862809 11.0876357,58.1151301 13.1313359,59.3061976 C13.7838641,59.6864907 14.5249538,59.8867925 15.2794595,59.8867925 L60.7212455,59.8867925 C63.0843364,59.8867925 65,57.9635531 65,55.5911172 C65,54.8336277 64.8004873,54.0896074 64.4216921,53.4344987 L41.7007991,14.1397645 C40.5553327,12.1587334 38.0748121,11.4399656 36.0656143,12.4648046 L35.8522289,12.5813026 Z M38.5289877,15.9882947 L61.2498807,55.2830288 C61.3039943,55.3766158 61.3324961,55.4829044 61.3324961,55.5911172 C61.3324961,55.9300366 61.0588299,56.2047851 60.7212455,56.2047851 L15.2794595,56.2047851 C15.171673,56.2047851 15.065803,56.1761706 14.9725847,56.121843 C14.6806275,55.9516905 14.581342,55.5761406 14.7508243,55.2830288 L37.4717173,15.9882947 C37.5250935,15.8959829 37.6015295,15.8192446 37.6934777,15.7656573 C37.9854349,15.5955048 38.3595055,15.6951829 38.5289877,15.9882947 Z" id="Path-30"></path>
            <circle id="Oval" cx="38" cy="51" r="3"></circle>
            <path d="M38,23 C39.5961274,23 40.8900442,24.2939169 40.8900442,25.8900442 C40.8900442,25.9260088 40.8893729,25.9619702 40.8880306,25.9979097 L40.2191601,43.9064939 C40.1755124,45.0751338 39.2154583,46 38.0460036,46 C36.8752434,46 35.912855,45.0765835 35.864486,43.9068229 L35.1239425,25.9974386 C35.0582629,24.4090359 36.2926738,23.0681373 37.8810765,23.0024577 C37.9206965,23.0008194 37.9603462,23 38,23 Z" id="Rectangle"></path>
        </g>
    </g>
</svg>