<svg width="30" height="30" viewBox="0 0 30 30" xmlns="http://www.w3.org/2000/svg">
    <path d="M16 0a1 1 0 0 1 1 1v3.181a10.94 10.94 0 0 1 4.236 1.756l2.25-2.25a1 1 0 0 1 1.413 0L26.314 5.1a1 1 0 0 1 0 1.414l-2.25 2.25A10.94 10.94 0 0 1 25.818 13H29a1 1 0 0 1 1 1v2a1 1 0 0 1-1 1h-3.181a10.94 10.94 0 0 1-1.756 4.236l2.25 2.25a1 1 0 0 1 .084 1.32l-.083.093-1.415 1.415a1 1 0 0 1-1.32.083l-.094-.083-2.25-2.25A10.94 10.94 0 0 1 17 25.818V29a1 1 0 0 1-1 1h-2a1 1 0 0 1-1-1v-3.181a10.94 10.94 0 0 1-4.236-1.756l-2.25 2.25a1 1 0 0 1-1.413 0L3.686 24.9a1 1 0 0 1 0-1.414l2.25-2.25A10.94 10.94 0 0 1 4.182 17H1a1 1 0 0 1-1-1v-2a1 1 0 0 1 1-1h3.181a10.94 10.94 0 0 1 1.756-4.236l-2.25-2.25a1 1 0 0 1-.084-1.32l.083-.093 1.415-1.415a1 1 0 0 1 1.32-.083l.094.083 2.25 2.25A10.94 10.94 0 0 1 13 4.182L13 1a1 1 0 0 1 1-1h2zm-1 8a7 7 0 1 0 0 14 7 7 0 0 0 0-14z" fill="#A6ACB5" fill-rule="evenodd"/>
</svg>
