<svg width="30" height="30" viewBox="0 0 30 30" xmlns="http://www.w3.org/2000/svg">
    <path d="M2 .226h9.548a2 2 0 0 1 2 2v9.548a2 2 0 0 1-2 2H2a2 2 0 0 1-2-2V2.226a2 2 0 0 1 2-2zm0 16h9.548a2 2 0 0 1 2 2v9.548a2 2 0 0 1-2 2H2a2 2 0 0 1-2-2v-9.548a2 2 0 0 1 2-2zm16.452-16H28a2 2 0 0 1 2 2v9.548a2 2 0 0 1-2 2h-9.548a2 2 0 0 1-2-2V2.226a2 2 0 0 1 2-2zm9.548 16a2 2 0 0 1 2 2v9.548a2 2 0 0 1-2 2h-9.548a2 2 0 0 1-2-2v-9.548a2 2 0 0 1 2-2H28zm0 1h-9.548a1 1 0 0 0-.994.883l-.006.117v9.548a1 1 0 0 0 .883.993l.117.007H28a1 1 0 0 0 .993-.883l.007-.117v-9.548a1 1 0 0 0-.883-.993L28 17.226z" fill="#A6ACB5" fill-rule="evenodd"/>
</svg>
