<svg width="48" height="40" viewBox="0 0 48 40" xmlns="http://www.w3.org/2000/svg">
    <defs>
        <filter x="-50%" y="-150%" width="200%" height="400%" filterUnits="objectBoundingBox" id="xi7hwlr7ha">
            <feGaussianBlur stdDeviation="4" in="SourceGraphic"/>
        </filter>
    </defs>
    <g transform="translate(9 .5)" fill="none" fill-rule="evenodd">
        <ellipse fill-opacity=".3" fill="#FF516E" filter="url(#xi7hwlr7ha)" cx="15" cy="23" rx="12" ry="4"/>
        <path d="M15 17c6.627 0 12 1.79 12 4s-5.373 4-12 4-12-1.79-12-4 5.373-4 12-4zm0 1c-5.523 0-10 1.12-10 2.5S9.477 23 15 23s10-1.12 10-2.5S20.523 18 15 18z" fill="#FF516E"/>
        <rect fill="#FF516E" x="1" y="20" width="7" height="1" rx=".5"/>
        <rect fill="#FF516E" x="22" y="20" width="7" height="1" rx=".5"/>
        <path d="m16.165 22.067.283 5.434a.95.95 0 0 1-.948.999.931.931 0 0 1-.929-.997l.389-5.437a.61.61 0 0 1 .608-.566c.318 0 .58.25.597.567z" fill="#FF516E"/>
        <path d="M15.5 21.231c3.038 0 5.5-.925 5.5-3.962 0-3.038-3.925-5.5-5.5-5.5-1.575 0-5.5 2.462-5.5 5.5 0 3.037 2.462 3.962 5.5 3.962z" fill="#0A3D31"/>
        <ellipse fill="#FFF" opacity=".617" cx="12" cy="17" rx="1" ry="2"/>
        <path d="M15.5 13c1.933 0 3.5-1.79 3.5-4s0-4-3.5-4S12 6.79 12 9s1.567 4 3.5 4z" fill="#FFDEDE"/>
        <path d="M15.5 4c1.822 0 3.117.597 3.26 1.36.143.436.24 1.232.24 2.14 0 .276.002.542.003.79v.359C19 9.452 18.965 10 18.773 10c-.277 0-.459-1.12-.459-2.5 0-.437-.009-.847-.012-1.205C17.752 6.72 16.75 7 15.5 7c-1.263 0-2.277-.287-2.83-.716-.006.358-.02.774-.02 1.216 0 1.38-.159 2.5-.435 2.5-.18 0-.217-.473-.22-1.183v-.344c.001-.299.005-.628.005-.973 0-.858.087-1.616.218-2.066C12.286 4.637 13.618 4 15.5 4z" fill="#621A1A"/>
    </g>
</svg>
