<svg width="25" height="24" viewBox="0 0 25 24" xmlns="http://www.w3.org/2000/svg">
    <g transform="translate(.283)" fill="none" fill-rule="evenodd">
        <circle fill="#FF516E" cx="12" cy="12" r="12"/>
        <path d="M18.788 5.212a2.4 2.4 0 0 1 0 3.394L15.394 12l3.394 3.394a2.4 2.4 0 0 1 .122 3.263l-.122.131a2.4 2.4 0 0 1-3.394 0L12 15.394l-3.394 3.394a2.4 2.4 0 1 1-3.394-3.394L8.605 12 5.212 8.606a2.4 2.4 0 0 1-.122-3.263l.122-.131a2.4 2.4 0 0 1 3.394 0L12 8.605l3.394-3.393a2.4 2.4 0 0 1 3.394 0z" fill="#FFF"/>
    </g>
</svg>
