<?xml version="1.0" encoding="UTF-8"?>
<svg id="Livello_1" data-name="Livello 1" xmlns="http://www.w3.org/2000/svg" xmlns:xlink="http://www.w3.org/1999/xlink" viewBox="0 0 6 26">
  <defs>
    <style>
      .cls-1 {
        clip-path: url(#clippath);
      }

      .cls-2 {
        fill: #e2e4e7;
      }

      .cls-3 {
        clip-rule: evenodd;
        fill: none;
      }
    </style>
    <clipPath id="clippath">
      <path class="cls-3" d="M3,26c1.66,0,3-1.34,3-3s-1.34-3-3-3-3,1.34-3,3,1.34,3,3,3Zm0-10c1.66,0,3-1.34,3-3s-1.34-3-3-3-3,1.34-3,3,1.34,3,3,3Zm0-10c1.66,0,3-1.34,3-3S4.66,0,3,0,0,1.34,0,3s1.34,3,3,3Z"/>
    </clipPath>
  </defs>
  <g class="cls-1">
    <rect class="cls-2" x="-1" y="-1" width="8" height="28"/>
  </g>
</svg>