<svg width="61" height="53" viewBox="0 0 61 53" xmlns="http://www.w3.org/2000/svg">
    <defs>
        <filter x="-33.4%" y="-100%" width="166.8%" height="300%" filterUnits="objectBoundingBox" id="ebouqpxtaa">
            <feGaussianBlur stdDeviation="4" in="SourceGraphic"/>
        </filter>
    </defs>
    <g transform="translate(7.969)" fill="none" fill-rule="evenodd">
        <path d="M16.12 20.809c2.804 1.652 5.17 2.478 7.094 2.478 1.924 0 4.3-.762 7.129-2.287-.83-2.102-1.33-3.84-1.497-5.213-.252-2.06-.71-7.5-5.632-7.5-4.921 0-5.486 6.394-5.737 7.7-.166.87-.619 2.477-1.357 4.822z" fill="#FFDB72"/>
        <path d="M23.214 34.444c4.55 0 8.237-1.388 8.237-5.944s-5.879-8.25-8.237-8.25c-2.358 0-8.237 3.694-8.237 8.25s3.688 5.944 8.237 5.944z" fill="#A6A9FF"/>
        <path d="M23.214 22.5c2.895 0 5.242-2.686 5.242-6s0-6-5.242-6-5.242 2.686-5.242 6 2.347 6 5.242 6z" fill="#FFDEDE"/>
        <ellipse fill-opacity=".3" fill="#00604B" filter="url(#ebouqpxtaa)" cx="22.465" cy="34.5" rx="17.972" ry="6"/>
        <path d="M8.237 38.944c4.55 0 8.237-1.388 8.237-5.944s-5.879-8.25-8.237-8.25C5.88 24.75 0 28.444 0 33s3.688 5.944 8.237 5.944z" fill="#00604B"/>
        <ellipse fill="#FFF" opacity=".617" cx="2.995" cy="33" rx="1.498" ry="3"/>
        <path d="M8.237 27c2.895 0 5.242-2.686 5.242-6s0-6-5.242-6-5.242 2.686-5.242 6 2.347 6 5.242 6z" fill="#FFDEDE"/>
        <path d="M8.237 13.5c2.733 0 4.673.898 4.882 2.044.216.657.36 1.847.36 3.206 0 .46.004.901.005 1.308v.396c-.005 1.215-.055 2.046-.346 2.046-.414 0-.686-1.679-.686-3.75 0-.654-.014-1.27-.019-1.805-.826.634-2.325 1.055-4.196 1.055-1.89 0-3.408-.43-4.235-1.073-.013.539-.032 1.16-.032 1.823 0 2.071-.24 3.75-.653 3.75-.26 0-.32-.666-.33-1.676v-.565c.002-.461.008-.972.008-1.509 0-1.285.13-2.42.326-3.095.1-1.199 2.095-2.155 4.916-2.155z" fill="#621A1A"/>
        <path d="M36.693 38.944c4.55 0 8.237-1.388 8.237-5.944s-5.879-8.25-8.237-8.25c-2.358 0-8.237 3.694-8.237 8.25s3.688 5.944 8.237 5.944z" fill="#F0973A"/>
        <ellipse fill="#FFF" opacity=".617" cx="31.451" cy="33" rx="1.498" ry="3"/>
        <ellipse fill="#FFF" opacity=".617" cx="17.972" cy="28.5" rx="1.498" ry="3"/>
        <path d="M36.693 27c2.895 0 5.242-2.686 5.242-6s0-7.435-5.242-7.435S31.45 17.686 31.45 21c0 3.314 2.347 6 5.242 6z" fill="#FFDEDE"/>
        <path d="M18.278 12.786c2.65 1.038 5.92 1.038 9.81 0-.065.03-1.29-3.442-4.874-3.442-2.39 0-4.035 1.147-4.936 3.442z" fill="#FFDB72"/>
    </g>
</svg>
