<svg width="48" height="40" viewBox="0 0 48 40" xmlns="http://www.w3.org/2000/svg">
    <defs>
        <filter x="-50%" y="-150%" width="200%" height="400%" filterUnits="objectBoundingBox" id="njrg457t1a">
            <feGaussianBlur stdDeviation="4" in="SourceGraphic"/>
        </filter>
    </defs>
    <g transform="translate(9 .5)" fill="none" fill-rule="evenodd">
        <ellipse fill-opacity=".3" fill="#703B3B" filter="url(#njrg457t1a)" cx="15" cy="23" rx="12" ry="4"/>
        <path d="M15.494 20.261c3.21 0 5.818-.69 5.818-5.949 0-3.21-4.148-5.812-5.812-5.812-1.664 0-5.812 2.602-5.812 5.812 0 5.312 2.595 5.95 5.806 5.95z" fill="#02102B"/>
        <path d="M11.898 18c-.829 0-1.5-1.343-1.5-3s.671-3 1.5-3C12.726 12 13 13.343 13 15s-.274 3-1.102 3z" fill="#FFF" opacity=".276"/>
        <rect fill="#621A1A" x="7" y="17" width="17" height="2" rx="1"/>
        <path fill="#703B3B" d="M9 19h13v8H9z"/>
        <path d="M15.5 10c1.933 0 3.5-1.79 3.5-4s0-4-3.5-4S12 3.79 12 6s1.567 4 3.5 4z" fill="#FFDEDE"/>
        <path d="M15.5 1c1.822 0 3.117.597 3.26 1.36.143.436.24 1.232.24 2.14 0 .276.002.542.003.79v.359C19 6.452 18.965 7 18.773 7c-.277 0-.459-1.12-.459-2.5 0-.437-.009-.847-.012-1.205C17.752 3.72 16.75 4 15.5 4c-1.263 0-2.277-.287-2.83-.716-.006.358-.02.774-.02 1.216 0 1.38-.159 2.5-.435 2.5-.18 0-.217-.473-.22-1.183v-.344c.001-.299.005-.628.005-.973 0-.858.087-1.616.218-2.066C12.286 1.637 13.618 1 15.5 1z" fill="#621A1A"/>
        <path fill="#FF516E" d="m15.494 10-.9 3.783.906 1.69 1.075-1.69z"/>
    </g>
</svg>
