<svg width="61" height="53" viewBox="0 0 61 53" xmlns="http://www.w3.org/2000/svg">
    <defs>
        <filter x="-33.4%" y="-100%" width="166.8%" height="300%" filterUnits="objectBoundingBox" id="htahhkah3a">
            <feGaussianBlur stdDeviation="4" in="SourceGraphic"/>
        </filter>
    </defs>
    <g transform="translate(7.969)" fill="none" fill-rule="evenodd">
        <ellipse fill-opacity=".3" fill="#00B899" filter="url(#htahhkah3a)" cx="22.465" cy="34.5" rx="17.972" ry="6"/>
        <path d="M13.907 17.847c-.668-.216-1.313-.371-1.88-.416H6.585l1.256-7.21h6.066v7.626zM24.085 24.308l-3.08-.003c-1.022-2.71-3.213-4.645-5.398-5.763v-8.32h6.598l1.879 7.982v6.105z" fill="#699EFF" opacity=".269"/>
        <path fill-opacity=".58" fill="#FFF" d="M7.686 15.256H22.98l-1.103-4.7H8.579z"/>
        <g fill-rule="nonzero">
            <path d="M38.013 26.565c-3.353 0-6.077 2.693-6.077 6 0 3.308 2.725 6 6.077 6 3.353 0 6.078-2.692 6.078-5.999.001-3.308-2.725-6.001-6.078-6.001z" fill="#FFDB72"/>
            <path d="M9.556 20.134c-5.27 0-9.556 4.23-9.556 9.432S4.287 39 9.556 39c5.27 0 9.56-4.233 9.56-9.434 0-5.202-4.29-9.432-9.56-9.432z" fill="#2C2C2C"/>
            <path d="M9.557 22.065c-4.191 0-7.596 3.366-7.596 7.5 0 4.135 3.406 7.5 7.596 7.5 4.192 0 7.597-3.365 7.597-7.499.002-4.135-3.405-7.501-7.597-7.501z" fill="#000"/>
            <path d="M9.558 25.065c-2.515 0-4.558 2.02-4.558 4.5 0 2.481 2.043 4.5 4.558 4.5 2.515 0 4.558-2.019 4.558-4.5 0-2.48-2.043-4.5-4.558-4.5z" fill="#FFDB72"/>
            <path d="M38.122 25.561c-3.754 0-6.805 3.014-6.805 6.718 0 3.705 3.05 6.72 6.805 6.72 3.753 0 6.808-3.015 6.808-6.72 0-3.704-3.055-6.718-6.808-6.718zm0 9.88c-1.77 0-3.203-1.415-3.203-3.161 0-1.747 1.433-3.16 3.203-3.16 1.77 0 3.204 1.413 3.204 3.16 0 1.746-1.435 3.161-3.204 3.161z" fill="#000"/>
            <path d="M32.606 26.201c-1.423-1.099-3.714-2.457-6.82-3.124v-.852c3.487.706 6.003 2.223 7.51 3.424a8.28 8.28 0 0 1 4.826-1.55c.978 0 1.911.178 2.78.487-.09-2.106-.355-4.324-1.065-4.59-3.499-1.286-8.057-2.055-11.733-2.38V10.93c0-.938.474-1.156.54-1.183a.836.836 0 0 0 .588-1.036.851.851 0 0 0-1.049-.578c-.66.185-1.779.98-1.779 2.797v6.564c-.26-.015-.505-.024-.75-.034l-1.988-8.445a.845.845 0 0 0-.68-.636c-.41-.071-10.118-1.738-17.42-.286a.841.841 0 0 0-.668.988.847.847 0 0 0 1.002.656c.101-.02.207-.033.309-.052l-1.34 7.698c-.003.016.003.032 0 .05h-.3c-1.608 0-1.928 1.022-1.928 1.022l-.984 2.436.818.401a11.016 11.016 0 0 1 7.08-2.567c6.06 0 10.988 4.865 10.988 10.843 0 1.048-.16 2.06-.442 3.019h9.777c-.004-.111-.016-.22-.016-.333 0-2.402 1.063-4.558 2.744-6.052zm3.245-5.882a.43.43 0 0 1 .553.237l.689 1.735a.42.42 0 0 1-.397.572.427.427 0 0 1-.395-.266l-.69-1.734a.418.418 0 0 1 .24-.544zm-2.003 0a.43.43 0 0 1 .551.237l.69 1.735a.42.42 0 0 1-.396.572.426.426 0 0 1-.396-.266l-.69-1.734a.417.417 0 0 1 .241-.544zm-19.94-2.472c-.669-.216-1.314-.371-1.88-.416H6.584l1.256-7.21h6.066v7.626zm10.177 6.461-3.08-.003c-1.022-2.71-3.213-4.645-5.398-5.763v-8.32h6.598l1.879 7.982v6.105z" fill="#00B899"/>
        </g>
        <path d="M37.442 1.5a2.998 2.998 0 0 1 2.995 3 2.998 2.998 0 0 1-4.662 2.493A2.996 2.996 0 0 1 29.953 6a2.998 2.998 0 0 1 4.662-2.493A2.995 2.995 0 0 1 37.442 1.5z" fill="#D8D8D8" opacity=".736"/>
        <ellipse fill="#C3BDBD" opacity=".736" cx="35.944" cy="9" rx="2.995" ry="3"/>
    </g>
</svg>
