<?xml version="1.0" encoding="UTF-8"?>
<svg width="30px" height="30px" viewBox="0 0 30 30" version="1.1" xmlns="http://www.w3.org/2000/svg" xmlns:xlink="http://www.w3.org/1999/xlink">
    <title>2FA8A43A-E653-417B-81C7-99DB1625652F</title>
    <g id="UI" stroke="none" stroke-width="1" fill="none" fill-rule="evenodd">
        <g id="D-Visibility_Popup" transform="translate(-1189.000000, -432.000000)" fill="#A6ACB5">
            <g id="Icon/system/close" transform="translate(1189.000000, 432.000000)">
                <path d="M27.2279221,2.27207794 C27.8137085,2.85786438 27.8137085,3.80761184 27.2279221,4.39339828 L16.6207381,14.9997381 L27.2279221,25.6066017 C27.7770968,26.1557765 27.8114203,27.0248389 27.3308923,27.6139997 L27.2279221,27.7279221 C26.6421356,28.3137085 25.6923882,28.3137085 25.1066017,27.7279221 L14.4997381,17.1207381 L3.89339828,27.7279221 C3.30761184,28.3137085 2.35786438,28.3137085 1.77207794,27.7279221 C1.1862915,27.1421356 1.1862915,26.1923882 1.77207794,25.6066017 L12.3777381,14.9997381 L1.77207794,4.39339828 C1.22290315,3.8442235 1.18857973,2.97516109 1.66910767,2.38600035 L1.77207794,2.27207794 C2.35786438,1.6862915 3.30761184,1.6862915 3.89339828,2.27207794 L14.4997381,12.8777381 L25.1066017,2.27207794 C25.6923882,1.6862915 26.6421356,1.6862915 27.2279221,2.27207794 Z" id="Combined-Shape"></path>
            </g>
        </g>
    </g>
</svg>