<?xml version="1.0" encoding="UTF-8"?>
<svg width="30px" height="30px" viewBox="0 0 30 30" version="1.1" xmlns="http://www.w3.org/2000/svg" xmlns:xlink="http://www.w3.org/1999/xlink">
    <title>5AD6AF12-9A65-4A89-A3FB-265B237DDCEC</title>
    <g id="UI" stroke="none" stroke-width="1" fill="none" fill-rule="evenodd">
        <g id="D-Visibility_Popup" transform="translate(-847.000000, -555.000000)" fill="#A6ACB5">
            <g id="Stacked-Group" transform="translate(811.000000, 553.000000)">
                <g id="Icon/system/public" transform="translate(36.000000, 2.000000)">
                    <path d="M15,-1.77635684e-15 C23.2842712,-1.77635684e-15 30,6.71572875 30,15 C30,23.2842712 23.2842712,30 15,30 C6.71572875,30 0,23.2842712 0,15 C0,6.71572875 6.71572875,-1.77635684e-15 15,-1.77635684e-15 Z M19.8007224,22.5820183 L19.6733527,22.6040973 C18.202646,22.8610397 16.6317504,23 15,23 C13.3209471,23 11.7063284,22.8528663 10.1989987,22.581455 C11.3535632,25.8899632 13.1865122,28 15,28 C16.8134878,28 18.6464368,25.8899632 19.8007224,22.5820183 Z M2.88102059,19.7151432 L2.96594031,19.9264982 C4.31314102,23.213879 6.96819814,25.8268191 10.2839459,27.1181526 C9.31449727,25.7894275 8.50982467,24.0600791 7.93978292,22.0602041 C5.93992093,21.4901753 4.21057254,20.6855027 2.88102059,19.7151432 Z M27.1181526,19.7160541 L26.9806549,19.8144818 C25.6703838,20.7404694 23.9914304,21.5097429 22.0602041,22.0602171 C21.4901753,24.0600791 20.6855027,25.7894275 19.7151432,27.1189794 C23.1022502,25.7993826 25.7993826,23.1022502 27.1181526,19.7160541 Z M15,9 C13.0526982,9 11.2221089,9.2138124 9.58377129,9.58362105 C9.2138124,11.2221089 9,13.0526982 9,15 C9,16.9473018 9.2138124,18.7778911 9.58362105,20.4162287 C11.2221089,20.7861876 13.0526982,21 15,21 C16.9473018,21 18.7778911,20.7861876 20.4162287,20.416379 C20.7861876,18.7778911 21,16.9473018 21,15 C21,13.0526982 20.7861876,11.2221089 20.416379,9.58377129 C18.7778911,9.2138124 16.9473018,9 15,9 Z M7.41854503,10.1989987 L7.25919482,10.2555359 C4.04266235,11.4125599 2,13.2156999 2,15 C2,16.8134878 4.11003678,18.6464368 7.4179817,19.8007224 C7.14713365,18.2936716 7,16.6790529 7,15 C7,13.3209471 7.14713365,11.7063284 7.41854503,10.1989987 Z M22.5820183,10.1992776 L22.6040973,10.3266473 C22.8610397,11.797354 23,13.3682496 23,15 C23,16.6790529 22.8528663,18.2936716 22.581455,19.8010013 C25.8899632,18.6464368 28,16.8134878 28,15 C28,13.1865122 25.8899632,11.3535632 22.5820183,10.1992776 Z M10.2848568,2.88102059 L10.0735018,2.96594031 C6.78612098,4.31314102 4.17318093,6.96819814 2.88184737,10.2839459 C4.21057254,9.31449727 5.93992093,8.50982467 7.93979588,7.93978292 C8.50982467,5.93992093 9.31449727,4.21057254 10.2848568,2.88102059 Z M19.7160541,2.88184737 L19.8144818,3.01934515 C20.7404694,4.32961621 21.5097429,6.0085696 22.0602171,7.93979588 C24.0600791,8.50982467 25.7894275,9.31449727 27.1189794,10.2848568 C25.7993826,6.89774977 23.1022502,4.20061738 19.7160541,2.88184737 Z M15,2 C13.1865122,2 11.3535632,4.11003678 10.1992776,7.4179817 C11.7063284,7.14713365 13.3209471,7 15,7 C16.6790529,7 18.2936716,7.14713365 19.8010013,7.41854503 C18.6779842,4.20044523 16.9131724,2.11623237 15.148721,2.00470976 L15,2 Z" id="Combined-Shape"></path>
                </g>
            </g>
        </g>
    </g>
</svg>