<?xml version="1.0" encoding="UTF-8"?>
<svg width="30px" height="30px" viewBox="0 0 30 30" version="1.1" xmlns="http://www.w3.org/2000/svg" xmlns:xlink="http://www.w3.org/1999/xlink">
    <title>40009F88-B7B5-4C1A-8BBE-E8DE8DA01489</title>
    <g id="UI" stroke="none" stroke-width="1" fill="none" fill-rule="evenodd">
        <g id="D-Visibility_Popup" transform="translate(-847.000000, -651.000000)" fill="#A6ACB5">
            <g id="Stacked-Group" transform="translate(811.000000, 553.000000)">
                <g id="Group-Group" transform="translate(0.000000, 96.000000)">
                    <g id="Icon/system/group" transform="translate(36.000000, 2.000000)">
                        <path d="M14.9197089,15.9166667 C18.7054429,15.9166667 21.7743867,18.8853616 21.7743867,21.4166667 C21.7743867,23.9479718 18.7054429,26 14.9197089,26 C11.1339749,26 8.06503112,23.9479718 8.06503112,21.4166667 C8.06503112,18.8853616 11.1339749,15.9166667 14.9197089,15.9166667 Z M24.5162578,12.7083333 C27.544845,12.7083333 30,15.2722062 30,17.4583333 C30,19.6444605 27.544845,21.4166667 24.5162578,21.4166667 C23.8703576,21.4166667 23.250539,21.3360611 22.6750547,21.1880255 C22.5354505,19.4015143 21.2128858,17.4838018 19.2581643,16.2646955 C19.9300388,14.4363206 22.0299087,12.7083333 24.5162578,12.7083333 Z M5.48374222,12.7083333 C7.97009131,12.7083333 10.0699612,14.4363206 10.7418357,16.2646955 C8.78711422,17.4838018 7.46454948,19.4015143 7.32494532,21.1880255 C6.74946105,21.3360611 6.12964239,21.4166667 5.48374222,21.4166667 C2.45515502,21.4166667 1.3500312e-13,19.6444605 1.3500312e-13,17.4583333 C1.3500312e-13,15.2722062 2.45515502,12.7083333 5.48374222,12.7083333 Z M14.9197089,5.83333333 C17.1911493,5.83333333 19.0325156,8.09056439 19.0325156,10.875 C19.0325156,13.6594356 17.1911493,15.9166667 14.9197089,15.9166667 C12.6482685,15.9166667 10.8069022,13.6594356 10.8069022,10.875 C10.8069022,8.09056439 12.6482685,5.83333333 14.9197089,5.83333333 Z M24.9079537,4 C26.8549026,4 28.4332165,5.94942682 28.4332165,8.35416667 C28.4332165,10.7589065 26.8549026,12.7083333 24.9079537,12.7083333 C22.9610047,12.7083333 21.3826908,10.7589065 21.3826908,8.35416667 C21.3826908,5.94942682 22.9610047,4 24.9079537,4 Z M5.09204635,4 C7.03899526,4 8.6173092,5.94942682 8.6173092,8.35416667 C8.6173092,10.7589065 7.03899526,12.7083333 5.09204635,12.7083333 C3.14509743,12.7083333 1.56678349,10.7589065 1.56678349,8.35416667 C1.56678349,5.94942682 3.14509743,4 5.09204635,4 Z" id="Combined-Shape"></path>
                    </g>
                </g>
            </g>
        </g>
    </g>
</svg>