<?xml version="1.0" encoding="UTF-8"?>
<svg width="30px" height="30px" viewBox="0 0 30 30" version="1.1" xmlns="http://www.w3.org/2000/svg" xmlns:xlink="http://www.w3.org/1999/xlink">
    <title>DF9A8DA2-9CE1-4F98-9079-9F947D758168</title>
    <g id="UI" stroke="none" stroke-width="1" fill="none" fill-rule="evenodd">
        <g id="D-Visibility_Popup" transform="translate(-847.000000, -601.000000)" fill="#A6ACB5">
            <g id="Stacked-Group" transform="translate(811.000000, 553.000000)">
                <g id="Group-friends" transform="translate(0.000000, 48.000000)">
                    <g id="Icon/system/friends_sel" transform="translate(36.000000, 0.000000)">
                        <path d="M22,12 C25.8659932,12 29,15.2385763 29,18 C29,20.7614237 25.8659932,23 22,23 C21.0331146,23 20.1120151,22.8599769 19.274278,22.6067712 C19.0327983,20.4820583 17.4826992,18.2339166 15.2049833,16.7375464 L15.2092572,16.7192957 C15.9707787,14.327918 18.7223101,12 22,12 Z M22.5,1 C24.9852814,1 27,3.46243388 27,6.5 C27,9.53756612 24.9852814,12 22.5,12 C20.0147186,12 18,9.53756612 18,6.5 C18,3.46243388 20.0147186,1 22.5,1 Z" id="Combined-Shape" opacity="0.5"></path>
                        <path d="M9.5,16 C14.1944204,16 18,19.8274083 18,23.0909091 C18,26.3544099 14.1944204,29 9.5,29 C4.80557963,29 1,26.3544099 1,23.0909091 C1,19.8274083 4.80557963,16 9.5,16 Z M9.5,3 C12.5375661,3 15,5.91014913 15,9.5 C15,13.0898509 12.5375661,16 9.5,16 C6.46243388,16 4,13.0898509 4,9.5 C4,5.91014913 6.46243388,3 9.5,3 Z" id="Combined-Shape"></path>
                    </g>
                </g>
            </g>
        </g>
    </g>
</svg>