<?xml version="1.0" encoding="UTF-8"?>
<svg width="30px" height="30px" viewBox="0 0 30 30" version="1.1" xmlns="http://www.w3.org/2000/svg" xmlns:xlink="http://www.w3.org/1999/xlink">
    <title>2FED731D-E8EF-4416-BADB-BDB9EB22F12E</title>
    <g id="UI" stroke="none" stroke-width="1" fill="none" fill-rule="evenodd">
        <g id="D-Visibility_Popup" transform="translate(-847.000000, -699.000000)" fill="#A6ACB5">
            <g id="Stacked-Group" transform="translate(811.000000, 553.000000)">
                <g id="Group-Copy" transform="translate(0.000000, 144.000000)">
                    <g id="Icon/system/market" transform="translate(36.000000, 2.000000)">
                        <path d="M5,2 C5.55228475,2 6,2.44771525 6,3 L17,3 C18.1045695,3 19,3.8954305 19,5 L19,6 L25.1208648,6 C25.6731495,6 26.1208648,6.44771525 26.1208648,7 C26.1208648,7.19902882 26.0614743,7.39353043 25.9502946,7.55861087 L23.3939715,11.3542598 C23.1695401,11.6874973 23.1663344,12.122695 23.3858325,12.4592025 L25.9913542,16.4536682 C26.2930849,16.9162447 26.1626937,17.5358381 25.7001172,17.8375688 C25.5376191,17.9435635 25.3477969,18 25.1537854,18 L12,18 C10.8954305,18 10,17.1045695 10,16 L6,16 L6,29 C6,29.5522847 5.55228475,30 5,30 C4.44771525,30 4,29.5522847 4,29 L4,3 C4,2.44771525 4.44771525,2 5,2 Z" id="Combined-Shape"></path>
                    </g>
                </g>
            </g>
        </g>
    </g>
</svg>